<?xml version="1.0" encoding="UTF-8"?>
<!DOCTYPE svg PUBLIC "-//W3C//DTD SVG 1.1//EN" "http://www.w3.org/Graphics/SVG/1.1/DTD/svg11.dtd">
<svg version="1.2" width="210mm" height="297mm" viewBox="0 0 21000 29700" preserveAspectRatio="xMidYMid" fill-rule="evenodd" stroke-width="28.222" stroke-linejoin="round" xmlns="http://www.w3.org/2000/svg" xmlns:ooo="http://xml.openoffice.org/svg/export" xmlns:xlink="http://www.w3.org/1999/xlink" xmlns:presentation="http://sun.com/xmlns/staroffice/presentation" xmlns:smil="http://www.w3.org/2001/SMIL20/" xmlns:anim="urn:oasis:names:tc:opendocument:xmlns:animation:1.0" xml:space="preserve">
 <defs class="ClipPathGroup">
  <clipPath id="presentation_clip_path" clipPathUnits="userSpaceOnUse">
   <rect x="0" y="0" width="21000" height="29700"/>
  </clipPath>
  <clipPath id="presentation_clip_path_shrink" clipPathUnits="userSpaceOnUse">
   <rect x="21" y="29" width="20958" height="29641"/>
  </clipPath>
 </defs>
 <defs class="TextShapeIndex">
  <g ooo:slide="id1" ooo:id-list="id3 id4 id5 id6 id7 id8 id9 id10 id11 id12 id13 id14 id15 id16 id17 id18 id19 id20 id21 id22 id23 id24 id25 id26 id27 id28 id29 id30 id31"/>
 </defs>
 <defs class="EmbeddedBulletChars">
  <g id="bullet-char-template-57356" transform="scale(0.00048828125,-0.00048828125)">
   <path d="M 580,1141 L 1163,571 580,0 -4,571 580,1141 Z"/>
  </g>
  <g id="bullet-char-template-57354" transform="scale(0.00048828125,-0.00048828125)">
   <path d="M 8,1128 L 1137,1128 1137,0 8,0 8,1128 Z"/>
  </g>
  <g id="bullet-char-template-10146" transform="scale(0.00048828125,-0.00048828125)">
   <path d="M 174,0 L 602,739 174,1481 1456,739 174,0 Z M 1358,739 L 309,1346 659,739 1358,739 Z"/>
  </g>
  <g id="bullet-char-template-10132" transform="scale(0.00048828125,-0.00048828125)">
   <path d="M 2015,739 L 1276,0 717,0 1260,543 174,543 174,936 1260,936 717,1481 1274,1481 2015,739 Z"/>
  </g>
  <g id="bullet-char-template-10007" transform="scale(0.00048828125,-0.00048828125)">
   <path d="M 0,-2 C -7,14 -16,27 -25,37 L 356,567 C 262,823 215,952 215,954 215,979 228,992 255,992 264,992 276,990 289,987 310,991 331,999 354,1012 L 381,999 492,748 772,1049 836,1024 860,1049 C 881,1039 901,1025 922,1006 886,937 835,863 770,784 769,783 710,716 594,584 L 774,223 C 774,196 753,168 711,139 L 727,119 C 717,90 699,76 672,76 641,76 570,178 457,381 L 164,-76 C 142,-110 111,-127 72,-127 30,-127 9,-110 8,-76 1,-67 -2,-52 -2,-32 -2,-23 -1,-13 0,-2 Z"/>
  </g>
  <g id="bullet-char-template-10004" transform="scale(0.00048828125,-0.00048828125)">
   <path d="M 285,-33 C 182,-33 111,30 74,156 52,228 41,333 41,471 41,549 55,616 82,672 116,743 169,778 240,778 293,778 328,747 346,684 L 369,508 C 377,444 397,411 428,410 L 1163,1116 C 1174,1127 1196,1133 1229,1133 1271,1133 1292,1118 1292,1087 L 1292,965 C 1292,929 1282,901 1262,881 L 442,47 C 390,-6 338,-33 285,-33 Z"/>
  </g>
  <g id="bullet-char-template-9679" transform="scale(0.00048828125,-0.00048828125)">
   <path d="M 813,0 C 632,0 489,54 383,161 276,268 223,411 223,592 223,773 276,916 383,1023 489,1130 632,1184 813,1184 992,1184 1136,1130 1245,1023 1353,916 1407,772 1407,592 1407,412 1353,268 1245,161 1136,54 992,0 813,0 Z"/>
  </g>
  <g id="bullet-char-template-8226" transform="scale(0.00048828125,-0.00048828125)">
   <path d="M 346,457 C 273,457 209,483 155,535 101,586 74,649 74,723 74,796 101,859 155,911 209,963 273,989 346,989 419,989 480,963 531,910 582,859 608,796 608,723 608,648 583,586 532,535 482,483 420,457 346,457 Z"/>
  </g>
  <g id="bullet-char-template-8211" transform="scale(0.00048828125,-0.00048828125)">
   <path d="M -4,459 L 1135,459 1135,606 -4,606 -4,459 Z"/>
  </g>
  <g id="bullet-char-template-61548" transform="scale(0.00048828125,-0.00048828125)">
   <path d="M 173,740 C 173,903 231,1043 346,1159 462,1274 601,1332 765,1332 928,1332 1067,1274 1183,1159 1299,1043 1357,903 1357,740 1357,577 1299,437 1183,322 1067,206 928,148 765,148 601,148 462,206 346,322 231,437 173,577 173,740 Z"/>
  </g>
 </defs>
 <defs class="TextEmbeddedBitmaps"/>
 <g>
  <g id="id2" class="Master_Slide">
   <g id="bg-id2" class="Background"/>
   <g id="bo-id2" class="BackgroundObjects"/>
  </g>
 </g>
 <g class="SlideGroup">
  <g>
   <g id="container-id1">
    <g id="id1" class="Slide" clip-path="url(#presentation_clip_path)">
     <g class="Page">
      <g class="com.sun.star.drawing.PolyPolygonShape">
       <g id="id3">
        <rect class="BoundingBox" stroke="none" fill="none" x="1005" y="1000" width="10157" height="10086"/>
       </g>
      </g>
      <g class="com.sun.star.drawing.ClosedBezierShape">
       <g id="id4">
        <rect class="BoundingBox" stroke="none" fill="none" x="1000" y="1000" width="10156" height="10086"/>
        <path fill="rgb(57,181,231)" stroke="none" d="M 6077,1000 C 8882,1000 11155,3257 11155,6042 11155,8827 8882,11084 6077,11084 3277,11084 1000,8827 1000,6042 1000,3257 3277,1000 6077,1000 Z"/>
       </g>
      </g>
      <g class="com.sun.star.drawing.ClosedBezierShape">
       <g id="id5">
        <rect class="BoundingBox" stroke="none" fill="none" x="1872" y="6288" width="1042" height="1609"/>
        <path fill="rgb(255,255,255)" stroke="none" d="M 2187,7387 L 2187,7432 C 2187,7573 2227,7669 2395,7669 2491,7674 2577,7593 2583,7498 2583,7493 2583,7488 2583,7483 2583,7342 2506,7286 2304,7216 2025,7120 1898,7004 1898,6747 1898,6445 2080,6289 2380,6289 2679,6289 2861,6410 2861,6712 L 2861,6752 2557,6752 C 2557,6606 2506,6521 2390,6521 2298,6510 2222,6576 2207,6662 2207,6677 2207,6692 2212,6702 2212,6798 2238,6858 2369,6913 L 2613,7019 C 2851,7120 2912,7236 2912,7422 2912,7750 2714,7896 2369,7896 2030,7896 1872,7734 1872,7447 L 1872,7387 2187,7387 Z"/>
       </g>
      </g>
      <g class="com.sun.star.drawing.PolyPolygonShape">
       <g id="id6">
        <rect class="BoundingBox" stroke="none" fill="none" x="2978" y="6319" width="1001" height="1543"/>
        <path fill="rgb(255,255,255)" stroke="none" d="M 3977,6319 L 3977,6576 3638,6576 3638,7860 3323,7860 3323,6576 2978,6576 2978,6319 3977,6319 Z"/>
       </g>
      </g>
      <g class="com.sun.star.drawing.PolyPolygonShape">
       <g id="id7">
        <rect class="BoundingBox" stroke="none" fill="none" x="4114" y="6319" width="1381" height="1543"/>
        <path fill="rgb(255,255,255)" stroke="none" d="M 4114,6319 L 4581,6319 4804,7407 5027,6319 5494,6319 5494,7860 5205,7860 5205,6631 4921,7860 4682,7860 4403,6626 4403,7860 4114,7860 4114,6319 Z"/>
       </g>
      </g>
      <g class="com.sun.star.drawing.ClosedBezierShape">
       <g id="id8">
        <rect class="BoundingBox" stroke="none" fill="none" x="5691" y="6334" width="883" height="1565"/>
        <path fill="rgb(255,255,255)" stroke="none" d="M 5998,7000 L 6095,7000 C 6262,7000 6333,6884 6333,6733 6333,6582 6282,6476 6135,6476 5927,6476 5907,6663 5907,6779 L 5714,6779 C 5714,6517 5846,6335 6130,6335 6328,6320 6506,6461 6526,6663 6526,6688 6526,6708 6526,6733 6536,6884 6435,7025 6287,7061 6465,7086 6587,7242 6572,7418 6572,7700 6429,7897 6135,7897 5902,7912 5709,7741 5694,7509 5694,7494 5689,7479 5694,7464 L 5694,7443 5882,7443 C 5882,7584 5953,7751 6135,7751 6247,7751 6379,7695 6379,7433 6399,7292 6308,7166 6166,7141 6145,7141 6125,7141 6095,7141 L 5998,7141 5998,7000 Z"/>
       </g>
      </g>
      <g class="com.sun.star.drawing.ClosedBezierShape">
       <g id="id9">
        <rect class="BoundingBox" stroke="none" fill="none" x="6736" y="6329" width="869" height="1534"/>
        <path fill="rgb(255,255,255)" stroke="none" d="M 7604,7861 L 6737,7861 C 6747,7615 6869,7383 7071,7237 L 7203,7126 C 7330,7045 7406,6909 7411,6758 7411,6632 7350,6486 7183,6486 6945,6486 6934,6728 6934,6814 L 6747,6814 C 6747,6527 6874,6330 7188,6330 7396,6315 7584,6471 7599,6683 7599,6698 7599,6718 7599,6738 7599,6970 7503,7096 7330,7252 L 7107,7438 C 7026,7504 6965,7594 6940,7700 L 7604,7700 7604,7861 Z"/>
       </g>
      </g>
      <g class="com.sun.star.drawing.ClosedBezierShape">
       <g id="id10">
        <rect class="BoundingBox" stroke="none" fill="none" x="5245" y="8479" width="773" height="1201"/>
        <path fill="rgb(255,255,255)" stroke="none" d="M 6011,9638 L 5834,9638 5834,9512 C 5778,9613 5666,9679 5550,9679 5245,9679 5245,9447 5245,9306 L 5245,8480 5428,8480 5428,9281 C 5428,9366 5428,9518 5600,9518 5722,9523 5829,9422 5829,9296 5829,9291 5829,9286 5829,9281 L 5829,8480 6016,8480 6011,9638 Z"/>
       </g>
      </g>
      <g class="com.sun.star.drawing.ClosedBezierShape">
       <g id="id11">
        <rect class="BoundingBox" stroke="none" fill="none" x="6193" y="8449" width="799" height="1227"/>
        <path fill="rgb(255,255,255)" stroke="none" d="M 6808,8833 C 6808,8722 6762,8596 6615,8596 6503,8596 6387,8652 6387,9075 6387,9226 6387,9528 6610,9528 6772,9528 6808,9362 6808,9236 L 6990,9236 C 6990,9422 6894,9674 6600,9674 6311,9674 6194,9473 6194,9075 6194,8788 6250,8450 6610,8450 6808,8440 6975,8586 6990,8778 6990,8798 6990,8813 6985,8833 L 6808,8833 Z"/>
       </g>
      </g>
      <g class="com.sun.star.drawing.PolyPolygonShape">
       <g id="id12">
        <rect class="BoundingBox" stroke="none" fill="none" x="7137" y="8097" width="190" height="1543"/>
        <path fill="rgb(255,255,255)" stroke="none" d="M 7137,9638 L 7325,9638 7325,8097 7137,8097 7137,9638 Z"/>
       </g>
      </g>
      <g class="com.sun.star.drawing.ClosedBezierShape">
       <g id="id13">
        <rect class="BoundingBox" stroke="none" fill="none" x="7532" y="8449" width="804" height="1226"/>
        <path fill="rgb(255,255,255)" stroke="none" d="M 7726,9084 C 7726,9261 7726,9528 7954,9528 8126,9528 8152,9346 8152,9261 L 8334,9261 C 8345,9472 8177,9664 7959,9674 7954,9674 7949,9674 7944,9674 7650,9674 7533,9472 7533,9074 7533,8787 7589,8450 7954,8450 8314,8450 8334,8762 8334,9009 L 8334,9084 7726,9084 Z M 8152,8938 L 8152,8873 C 8152,8742 8111,8591 7949,8591 7751,8591 7731,8822 7731,8893 L 7731,8933 8152,8938 Z"/>
       </g>
      </g>
      <g class="com.sun.star.drawing.ClosedBezierShape">
       <g id="id14">
        <rect class="BoundingBox" stroke="none" fill="none" x="8481" y="8449" width="844" height="1226"/>
        <path fill="rgb(255,255,255)" stroke="none" d="M 8897,8450 C 9242,8450 9323,8732 9323,9059 9323,9387 9237,9674 8897,9674 8563,9674 8481,9387 8481,9059 8481,8737 8563,8450 8897,8450 Z M 9126,9059 C 9126,8807 9090,8596 8897,8596 8700,8596 8669,8812 8669,9059 8669,9311 8710,9528 8892,9528 9080,9528 9126,9311 9126,9059 Z"/>
       </g>
      </g>
      <g class="com.sun.star.drawing.ClosedBezierShape">
       <g id="id15">
        <rect class="BoundingBox" stroke="none" fill="none" x="4814" y="2808" width="768" height="210"/>
        <path fill="rgb(255,255,255)" stroke="none" d="M 5580,2808 C 5372,2959 5119,3025 4865,3015 L 4814,3015 4865,3015 C 5119,3030 5372,2959 5580,2808 Z"/>
       </g>
      </g>
      <g class="com.sun.star.drawing.ClosedBezierShape">
       <g id="id16">
        <rect class="BoundingBox" stroke="none" fill="none" x="6351" y="4727" width="210" height="22"/>
        <path fill="rgb(255,255,255)" stroke="none" d="M 6559,4748 L 6508,4748 C 6448,4748 6397,4748 6351,4727 6397,4727 6448,4748 6508,4748 L 6559,4748 Z"/>
       </g>
      </g>
      <g class="com.sun.star.drawing.ClosedBezierShape">
       <g id="id17">
        <rect class="BoundingBox" stroke="none" fill="none" x="6554" y="4540" width="773" height="206"/>
        <path fill="rgb(255,255,255)" stroke="none" d="M 7325,4541 C 7117,4687 6863,4758 6610,4742 L 6554,4742 6610,4742 C 6863,4758 7117,4687 7325,4541 Z"/>
       </g>
      </g>
      <g class="com.sun.star.drawing.ClosedBezierShape">
       <g id="id18">
        <rect class="BoundingBox" stroke="none" fill="none" x="7553" y="4057" width="58" height="158"/>
        <path fill="rgb(255,255,255)" stroke="none" d="M 7609,4057 C 7594,4113 7579,4163 7553,4214 7579,4163 7594,4113 7609,4057 Z"/>
       </g>
      </g>
      <g class="com.sun.star.drawing.ClosedBezierShape">
       <g id="id19">
        <rect class="BoundingBox" stroke="none" fill="none" x="7598" y="3664" width="43" height="400"/>
        <path fill="rgb(255,255,255)" stroke="none" d="M 7599,4062 C 7624,3942 7639,3821 7639,3700 7639,3690 7639,3675 7639,3665 7639,3675 7639,3690 7639,3700 7639,3821 7624,3942 7599,4062 Z"/>
       </g>
      </g>
      <g class="com.sun.star.drawing.ClosedBezierShape">
       <g id="id20">
        <rect class="BoundingBox" stroke="none" fill="none" x="6102" y="3075" width="109" height="87"/>
        <path fill="rgb(255,255,255)" stroke="none" d="M 6209,3075 C 6174,3100 6133,3126 6103,3161 6133,3126 6174,3100 6209,3075 Z"/>
       </g>
      </g>
      <g class="com.sun.star.drawing.ClosedBezierShape">
       <g id="id21">
        <rect class="BoundingBox" stroke="none" fill="none" x="6447" y="2964" width="169" height="17"/>
        <path fill="rgb(255,255,255)" stroke="none" d="M 6615,2964 L 6579,2964 C 6529,2964 6488,2969 6448,2980 6488,2969 6529,2964 6579,2964 L 6615,2964 Z"/>
       </g>
      </g>
      <g class="com.sun.star.drawing.ClosedBezierShape">
       <g id="id22">
        <rect class="BoundingBox" stroke="none" fill="none" x="5920" y="1231" width="4810" height="4782"/>
        <path fill="rgb(255,255,255)" stroke="none" d="M 10728,3619 C 10728,3801 10652,3972 10520,4098 10505,4113 10490,4128 10475,4138 10460,4148 10444,4158 10429,4168 10394,4193 10358,4209 10323,4229 10302,4234 10287,4244 10267,4249 10196,4269 10130,4279 10059,4279 10044,4279 10023,4279 10008,4279 9942,4279 9876,4284 9821,4289 9780,4294 9744,4299 9704,4309 L 9648,4319 9587,4334 C 9491,4360 9400,4405 9313,4460 9283,4481 9258,4506 9232,4531 9060,4707 8984,4964 8973,5317 8973,5332 8973,5342 8973,5352 8973,5720 8679,6012 8309,6012 7944,6012 7650,5720 7650,5352 7650,4989 7944,4697 8309,4697 L 8350,4697 C 9060,4697 9379,4370 9394,3675 9394,3660 9394,3639 9394,3624 9389,3609 9389,3599 9394,3589 9394,3050 9207,2733 8806,2612 L 8735,2592 8659,2577 C 8629,2566 8593,2566 8563,2561 L 8547,2561 C 8517,2561 8492,2561 8461,2551 8431,2546 8395,2551 8365,2551 8350,2556 8329,2556 8314,2551 8294,2556 8279,2556 8263,2551 8192,2551 8131,2551 8071,2566 8010,2577 7995,2577 7959,2582 L 7903,2592 7837,2612 C 7741,2637 7650,2677 7568,2738 7538,2758 7508,2783 7482,2813 7462,2833 7442,2854 7426,2879 7406,2904 7386,2929 7376,2954 7355,2980 7345,3010 7330,3040 7320,3070 7305,3100 7295,3131 7284,3181 7274,3236 7264,3287 7264,3307 7264,3322 7254,3342 7254,3382 7249,3423 7244,3463 7244,3503 7244,3544 7244,3589 7244,3599 7244,3614 7244,3624 7239,3987 6945,4279 6579,4274 6214,4274 5920,3977 5920,3614 5925,3403 6032,3201 6209,3080 6245,3055 6285,3035 6321,3020 6361,3000 6407,2990 6453,2980 6493,2969 6534,2969 6579,2969 L 6615,2969 C 6823,2974 7026,2934 7213,2849 7244,2838 7269,2818 7295,2803 7320,2788 7345,2768 7366,2748 7381,2738 7391,2728 7401,2718 7513,2602 7589,2461 7619,2305 7629,2264 7634,2229 7639,2194 7645,2153 7650,2113 7655,2078 7655,2033 7655,1992 7660,1947 7660,1932 7660,1917 7660,1897 7660,1881 7660,1866 7660,1851 7660,1841 7660,1831 7660,1821 7660,1801 7665,1781 7665,1766 7665,1745 7675,1725 7680,1705 7685,1685 7695,1665 7705,1640 7716,1620 7705,1640 7705,1640 7710,1625 7721,1604 7731,1589 7741,1569 7751,1549 7766,1534 7776,1514 7787,1499 7802,1484 7802,1484 7827,1458 7837,1443 L 7847,1438 C 7863,1418 7873,1398 7893,1383 L 7924,1358 C 7944,1343 7964,1332 7989,1317 8086,1262 8202,1232 8314,1232 8659,1232 8948,1494 8979,1831 8979,1851 8979,1871 8979,1892 8979,1907 8979,1927 8979,1942 8979,2088 8994,2229 9034,2365 L 9044,2400 C 9044,2415 9055,2430 9065,2446 9085,2506 9115,2561 9151,2612 9313,2849 9597,2959 10023,2964 L 10059,2964 C 10429,2964 10723,3257 10728,3619 Z"/>
       </g>
      </g>
      <g class="com.sun.star.drawing.ClosedBezierShape">
       <g id="id23">
        <rect class="BoundingBox" stroke="none" fill="none" x="7238" y="3458" width="2" height="163"/>
        <path fill="rgb(255,255,255)" stroke="none" d="M 7239,3584 L 7239,3619 C 7239,3609 7239,3599 7239,3584 7239,3539 7239,3498 7239,3458 7239,3498 7239,3539 7239,3584 Z"/>
       </g>
      </g>
      <g class="com.sun.star.drawing.ClosedBezierShape">
       <g id="id24">
        <rect class="BoundingBox" stroke="none" fill="none" x="7573" y="2601" width="276" height="138"/>
        <path fill="rgb(255,255,255)" stroke="none" d="M 7847,2602 C 7751,2632 7655,2672 7574,2738 7655,2672 7751,2627 7847,2602 Z"/>
       </g>
      </g>
      <g class="com.sun.star.drawing.ClosedBezierShape">
       <g id="id25">
        <rect class="BoundingBox" stroke="none" fill="none" x="8075" y="2546" width="246" height="27"/>
        <path fill="rgb(255,255,255)" stroke="none" d="M 8319,2556 L 8268,2556 C 8202,2556 8142,2556 8076,2572 8142,2572 8202,2556 8268,2546 8289,2556 8304,2556 8319,2556 Z"/>
       </g>
      </g>
      <g class="com.sun.star.drawing.ClosedBezierShape">
       <g id="id26">
        <rect class="BoundingBox" stroke="none" fill="none" x="8314" y="2551" width="149" height="4"/>
        <path fill="rgb(255,255,255)" stroke="none" d="M 8461,2554 L 8314,2554 C 8334,2554 8350,2554 8370,2554 8400,2549 8431,2554 8461,2554 Z"/>
       </g>
      </g>
      <g class="com.sun.star.drawing.ClosedBezierShape">
       <g id="id27">
        <rect class="BoundingBox" stroke="none" fill="none" x="9313" y="4334" width="281" height="133"/>
        <path fill="rgb(255,255,255)" stroke="none" d="M 9592,4334 C 9491,4365 9394,4410 9313,4465 9394,4405 9486,4365 9592,4334 Z"/>
       </g>
      </g>
      <g class="com.sun.star.drawing.ClosedBezierShape">
       <g id="id28">
        <rect class="BoundingBox" stroke="none" fill="none" x="9815" y="4279" width="250" height="17"/>
        <path fill="rgb(255,255,255)" stroke="none" d="M 10064,4279 L 10003,4279 C 9937,4279 9876,4279 9815,4294 9876,4289 9937,4279 10003,4279 10028,4279 10044,4279 10064,4279 Z"/>
       </g>
      </g>
      <g class="com.sun.star.drawing.ClosedBezierShape">
       <g id="id29">
        <rect class="BoundingBox" stroke="none" fill="none" x="4170" y="1266" width="4805" height="4789"/>
        <path fill="rgb(255,255,255)" stroke="none" d="M 8968,3670 C 8968,3690 8968,3715 8968,3735 8963,3780 8953,3821 8938,3861 8938,3881 8928,3901 8918,3921 8892,3982 8857,4037 8816,4083 8806,4103 8791,4118 8776,4133 L 8730,4173 C 8608,4269 8461,4324 8304,4324 L 8268,4324 C 8162,4324 8060,4334 7959,4350 7924,4355 7888,4365 7853,4370 L 7802,4390 C 7771,4400 7741,4410 7710,4420 7680,4435 7650,4450 7624,4465 7574,4496 7523,4531 7482,4571 7310,4742 7224,4999 7224,5347 7224,5367 7224,5382 7224,5402 7224,5417 7224,5433 7224,5448 L 7224,5483 C 7224,5493 7224,5503 7224,5508 7224,5518 7224,5528 7224,5538 L 7224,5548 C 7224,5563 7218,5579 7213,5594 7208,5604 7208,5619 7198,5629 7198,5639 7193,5649 7188,5659 7188,5674 7173,5689 7168,5705 L 7153,5735 7153,5740 C 7147,5750 7137,5760 7132,5770 7122,5785 7112,5795 7107,5805 7097,5815 7092,5825 7082,5835 7061,5861 7041,5881 7016,5901 7011,5906 7005,5911 6995,5916 6985,5926 6970,5936 6960,5946 L 6950,5946 6909,5966 C 6590,6148 6189,6037 6006,5720 5961,5639 5935,5548 5925,5458 5925,5438 5925,5422 5925,5402 5925,5382 5925,5367 5925,5347 5925,4994 5834,4742 5666,4571 5656,4561 5646,4551 5636,4541 5550,4470 5448,4415 5342,4385 L 5306,4375 5235,4360 C 5179,4345 5124,4340 5068,4334 5027,4334 4987,4324 4941,4324 L 4840,4324 C 4474,4329 4175,4037 4170,3670 4170,3483 4246,3307 4383,3181 L 4429,3141 4480,3105 C 4495,3095 4515,3085 4530,3075 4551,3065 4571,3055 4586,3050 4611,3040 4637,3030 4667,3025 4698,3015 4733,3005 4769,3005 L 4890,3005 C 5144,3015 5393,2944 5606,2803 5631,2788 5651,2768 5671,2743 5844,2577 5920,2320 5930,1962 5930,1952 5930,1942 5930,1927 5925,1564 6224,1267 6590,1267 6960,1267 7259,1559 7259,1927 7259,2123 7168,2310 7016,2436 7000,2446 6990,2456 6975,2466 6934,2491 6894,2516 6848,2536 L 6787,2556 C 6747,2572 6706,2577 6661,2582 6640,2587 6615,2587 6595,2582 L 6559,2582 C 5844,2592 5524,2904 5514,3599 5514,3614 5514,3634 5514,3649 5514,3665 5514,3675 5514,3685 5504,3891 5545,4093 5631,4284 5646,4309 5661,4334 5677,4360 5697,4390 5712,4410 5732,4435 5742,4445 5753,4455 5763,4465 5829,4531 5905,4586 5991,4622 L 6047,4647 C 6087,4662 6133,4677 6174,4687 L 6240,4702 C 6285,4712 6331,4717 6377,4717 L 6392,4717 C 6437,4717 6488,4727 6544,4727 L 6650,4727 C 6899,4742 7153,4667 7361,4526 7381,4506 7406,4486 7426,4465 7467,4415 7497,4360 7523,4304 7538,4274 7553,4244 7563,4214 7584,4163 7599,4118 7609,4068 7634,3947 7645,3826 7645,3705 7645,3695 7645,3685 7645,3670 7660,3307 7969,3025 8339,3040 8684,3055 8958,3332 8973,3670 L 8968,3670 Z"/>
       </g>
      </g>
      <g class="com.sun.star.drawing.ClosedBezierShape">
       <g id="id30">
        <rect class="BoundingBox" stroke="none" fill="none" x="6812" y="2475" width="134" height="73"/>
        <path fill="rgb(255,255,255)" stroke="none" d="M 6945,2476 C 6899,2501 6858,2531 6813,2546 6858,2526 6899,2501 6945,2476 Z"/>
       </g>
      </g>
      <g class="com.sun.star.drawing.ClosedBezierShape">
       <g id="id31">
        <rect class="BoundingBox" stroke="none" fill="none" x="8298" y="4173" width="428" height="158"/>
        <path fill="rgb(255,255,255)" stroke="none" d="M 8725,4173 C 8603,4279 8451,4334 8299,4329 8451,4329 8603,4279 8725,4173 Z"/>
       </g>
      </g>
     </g>
    </g>
   </g>
  </g>
 </g>
</svg>